<?xml version="1.0" encoding="UTF-8"?>
<!DOCTYPE svg PUBLIC "-//W3C//DTD SVG 1.1//EN" "http://www.w3.org/Graphics/SVG/1.1/DTD/svg11.dtd">
<!-- Creator: CorelDRAW -->
<svg xmlns="http://www.w3.org/2000/svg" xml:space="preserve" width="6.711in" height="0.901in" version="1.1" style="shape-rendering:geometricPrecision; text-rendering:geometricPrecision; image-rendering:optimizeQuality; fill-rule:evenodd; clip-rule:evenodd"
viewBox="0 0 6711 901"
 xmlns:xlink="http://www.w3.org/1999/xlink"
 xmlns:xodm="http://www.corel.com/coreldraw/odm/2003">
 <defs>
  <style type="text/css">
   <![CDATA[
    .fil0 {fill:#373435;fill-rule:nonzero}
   ]]>
  </style>
 </defs>
 <g id="Layer_x0020_1">
  <metadata id="CorelCorpID_0Corel-Layer"/>
  <path class="fil0" d="M3.2 899.66l0 -44.44 109.72 0 0 -816.67 -109.72 0 0 -40.28 447.22 0 0 40.28 -108.33 0 0 370.83 302.78 0 0 -370.83 -108.33 0 0 -40.28 445.83 0 0 40.28 -109.72 0 0 816.67 109.72 0 0 44.44 -445.83 0 0 -44.44 108.33 0 0 -394.44 -302.78 0 0 394.44 108.33 0 0 44.44 -447.22 0zm1422.88 -901.39l268.19 0c14.52,4.48 28.69,9.72 42.5,15.74 53.7,23.61 104.63,59.49 152.55,107.87 45.14,46.53 79.63,97.69 103.24,153.47 23.84,55.79 35.65,113.89 35.65,173.84 0,61.57 -11.81,120.37 -35.65,176.39 -23.61,56.02 -58.1,107.18 -103.24,153.24 -46.53,47.92 -96.99,83.57 -151.16,106.71 -12.32,5.32 -24.91,10.02 -37.78,14.12l-279.98 0c-12.78,-4.1 -25.3,-8.8 -37.56,-14.12 -53.7,-23.15 -104.4,-58.8 -151.85,-106.71 -44.67,-46.06 -78.7,-97.22 -102.31,-153.47 -23.38,-56.48 -35.19,-115.04 -35.19,-176.16 0,-60.42 11.81,-118.52 35.19,-174.07 23.61,-55.56 57.64,-106.71 102.31,-153.24 47.92,-48.38 98.84,-84.26 152.55,-107.87 13.87,-6.02 28.06,-11.26 42.56,-15.74zm679.9 0l948.61 0 0 40.28 -39.81 0c-13.66,0 -24.31,3.01 -32.41,9.26 -7.87,6.02 -15.51,17.83 -23.38,35.42l-88.66 197.46 149.77 348.38 181.71 -500.93c4.17,-10.88 7.18,-21.3 9.49,-31.02 2.31,-9.72 3.47,-17.59 3.47,-24.07 0,-12.5 -3.24,-21.53 -9.96,-26.62 -6.48,-5.33 -18.52,-7.87 -36.11,-7.87l-55.79 0 0 -40.28 263.89 0 0 40.28 -42.82 0c-20.14,0 -36.57,5.79 -49.07,17.59 -12.5,11.81 -25.69,36.81 -39.58,75.23l-278.78 768.29 -53.54 0 -154.02 -368.29 -166.72 368.29 -55.5 0 -354.16 -861.11 -76.62 0 0 -40.28zm1343.29 0l450 0 0 40.28 -125 0 0 816.67 131.71 0c74.3,0 132.64,-19.68 174.77,-59.03 42.13,-39.58 75,-105.56 99.07,-197.92l43.06 0 -10.19 301.39 -763.43 0 0 -44.44 93.06 0 0 -816.67 -93.06 0 0 -40.28zm819.44 0l455.56 0 0 40.28 -111.11 0 0 816.67 111.11 0 0 44.44 -455.56 0 0 -44.44 111.11 0 0 -816.67 -111.11 0 0 -40.28zm534.49 0l366.52 0 379.31 518.52 0 -411.11c0,-27.55 -4.17,-45.6 -12.5,-54.17 -8.33,-8.56 -26.39,-12.96 -54.17,-12.96l-58.33 0 0 -40.28 288.89 0 0 40.28 -52.78 0c-22.69,0 -38.2,4.63 -46.76,13.89 -8.57,9.26 -12.96,27.09 -12.96,53.24l0 793.98 -52.42 0 -575.36 -791.2 0 697.22c0,15.74 4.4,28.01 13.2,36.57 8.8,8.56 21.53,12.96 38.19,12.96l80.56 0 0 44.44 -304.17 0 0 -44.44 69.91 0c18.06,0 30.56,-3.93 37.73,-11.81 6.94,-7.87 10.42,-23.38 10.42,-46.53l0 -710.88c0,-19.44 -3.93,-32.18 -11.57,-38.2 -7.64,-6.25 -23.61,-9.26 -48.15,-9.26l-55.56 0 0 -40.28zm1350.82 0l251.74 0c33.81,11.59 63.65,28.78 89.33,51.39l48.1 -51.39 43.41 0 6.64 258.33 -50 0c-23.61,-77.31 -56.48,-136.11 -99.07,-176.16 -42.59,-40.05 -93.29,-59.95 -152.08,-59.95 -43.29,0 -78.47,7.41 -105.09,21.99 -26.62,14.81 -46.76,37.96 -60.42,69.68 -10.42,23.38 -17.59,57.18 -21.76,101.39 -3.94,43.98 -6.02,131.94 -6.02,263.66 0,185.42 11.34,298.61 34.03,339.81 22.45,41.2 65.97,61.8 130.33,61.8 43.75,0 77.54,-9.72 101.39,-29.17 23.84,-19.44 35.65,-47.22 35.65,-83.33l0 -170.83 -118.06 0 0 -43.06 432.05 0 0 43.06 -77.89 0 0 11.57c0,97.92 -32.17,174.54 -96.3,230.09 -32.17,27.78 -70.43,48.61 -114.78,62.5l-290.95 0c-34.04,-11.23 -65.72,-27.07 -95.19,-47.69 -67.36,-46.53 -118.98,-104.17 -154.63,-173.15 -35.88,-68.98 -53.7,-145.37 -53.7,-229.63 0,-65.04 12.5,-126.62 37.73,-184.72 25,-57.87 62.5,-110.88 112.27,-158.8 42.59,-41.67 88.89,-73.15 139.35,-94.68 11.2,-4.78 22.52,-9.02 33.93,-12.73zm-4791.11 450.93c0,115.97 1.85,195.6 5.79,239.35 3.94,43.52 10.65,76.16 20.6,97.22 14.58,33.1 35.19,56.94 61.81,71.3 26.85,14.59 62.96,21.76 108.8,21.76 46.06,0 82.41,-7.17 109.26,-21.76 26.62,-14.35 47.22,-38.19 61.8,-71.3 10.42,-22.92 17.59,-57.64 21.76,-103.7 3.94,-46.06 6.02,-123.84 6.02,-232.87 0,-108.56 -2.08,-185.88 -6.02,-231.94 -4.17,-46.06 -11.34,-80.79 -21.76,-103.7 -14.58,-33.1 -35.19,-56.94 -61.8,-71.3 -26.85,-14.58 -63.2,-21.76 -109.26,-21.76 -45.83,0 -81.94,7.17 -108.8,21.76 -26.62,14.35 -47.22,38.2 -61.81,71.3 -9.95,21.06 -16.67,53.7 -20.6,97.22 -3.93,43.75 -5.79,123.15 -5.79,238.43zm1483.57 -220.14l84.72 -193.29 -166.67 0 81.94 193.29zm-187.73 417.59l76.62 -170.83 -185.88 -440.05 -141.67 0 250.93 610.88z"/>
 </g>
</svg>
